<svg xmlns="http://www.w3.org/2000/svg" xmlns:xlink="http://www.w3.org/1999/xlink" viewBox="0 0 46 41">
	<defs>
		<style>
			.cls-3 {
				stroke:#e0e0e0;
				stroke-width:0.15px;
			}
			.cls-3,.cls-4,.cls-6 {
				fill:#fff;
			}
			.cls-4 {
				stroke:#35a8e0;
				stroke-width:0.75px;
			}
			.cls-5 {
				fill:none;
			}
			.cls-5,.cls-6 {
				stroke:#e61b72;
				stroke-width:0.9px;
			}
		</style>
	</defs>
		<path class="cls-3" d="M43.62,15.59c-.41-1.51-2-2.5-4.16-2.69a4.36,4.36,0,0,0-4.35-4.16,4,4,0,0,0-.91.1,4.34,4.34,0,0,0-2.08-4.68A4.36,4.36,0,0,0,27,4.7a4.35,4.35,0,0,0-8.27,0,4.36,4.36,0,0,0-5.09-.54,4.34,4.34,0,0,0-2.08,4.68,4,4,0,0,0-.91-.1,4.35,4.35,0,0,0-3.77,2.18A4.38,4.38,0,0,0,7.45,16a4.31,4.31,0,0,0-2.24,1.67l-.33-.33A1.24,1.24,0,0,0,4.05,17a1.09,1.09,0,0,0-.36.06l-.85.27A1.18,1.18,0,0,0,2,18.6l.71,6.69a1.2,1.2,0,0,0,.1.37l.51,1.11a1.2,1.2,0,0,0,1,.69l2.07.22a4.26,4.26,0,0,0,.55,1.69,4.37,4.37,0,0,0,3.77,2.18,4.7,4.7,0,0,0,.91-.1,4.34,4.34,0,0,0,2.08,4.68,4.36,4.36,0,0,0,5.09-.54,4.35,4.35,0,0,0,8.27,0,4.35,4.35,0,0,0,7.17-4.14,4.7,4.7,0,0,0,.91.1,4.38,4.38,0,0,0,3.77-2.18,4.37,4.37,0,0,0-.54-5.09,4.34,4.34,0,0,0,3-4.14,4,4,0,0,0,0-.49C42.62,19.17,44.31,18.18,43.62,15.59ZM30.23,12.26a3.4,3.4,0,0,0,.64-.09,3.4,3.4,0,0,0-.09.64l-.41.24c-.12-.13-.25-.26-.38-.38ZM25.31,9.65a4.61,4.61,0,0,0,.5-.4,5.36,5.36,0,0,0,.24.6l-.23.4-.51-.13ZM20,9.25a4,4,0,0,0,.5.4v.46l-.51.14-.24-.4A5.09,5.09,0,0,0,20,9.25Zm-4.42,3,.23.41-.37.37L15,12.81c0-.22,0-.43-.09-.64A3.4,3.4,0,0,0,15.56,12.26ZM12.6,17l.4.24c-.05.17-.09.34-.13.51H12.4a4,4,0,0,0-.4-.5A5.09,5.09,0,0,0,12.6,17Zm3,11.05a4.34,4.34,0,0,0-.63.08,4.52,4.52,0,0,0,.08-.63l.41-.24c.12.13.25.26.38.38ZM20,30l.11,0L20,31h0a5.36,5.36,0,0,0-.24-.6Zm10.26-2L30,27.62c.13-.12.26-.25.38-.38l.41.24a4.52,4.52,0,0,0,.08.63A4.34,4.34,0,0,0,30.23,28Zm3-4.72-.41-.24c0-.17.1-.34.14-.52h.47a3.9,3.9,0,0,0,.4.51A4.47,4.47,0,0,0,33.19,23.31Z"/>
		<path class="cls-4" d="M33.38,21.14h.87a2.94,2.94,0,1,0,0-2H31.73a8.8,8.8,0,0,0-.68-2.56l2.18-1.27a2.94,2.94,0,0,0,1.89.7,3,3,0,0,0,1.46-.39,2.93,2.93,0,0,0-1.47-5.47,2.88,2.88,0,0,0-1.46.39,2.94,2.94,0,0,0-1.42,3.06l-2.18,1.26A8.82,8.82,0,0,0,28.17,13l1.26-2.19a3.07,3.07,0,0,0,.52.06,3,3,0,0,0,2.54-1.47,2.92,2.92,0,0,0,.29-2.22A3,3,0,0,0,30,5a3,3,0,0,0-2.54,1.47,2.92,2.92,0,0,0-.29,2.22,2.85,2.85,0,0,0,.59,1.13l-.21.36-.22.4h0L26.45,12a8.81,8.81,0,0,0-2.56-.69V8.79a2.94,2.94,0,1,0-2,0V11.3a9,9,0,0,0-2.57.69L18.08,9.81a2.92,2.92,0,1,0-2.24,1,2.84,2.84,0,0,0,.51-.06L17.62,13a9,9,0,0,0-1.88,1.87L14.31,14l-.75-.43a2.94,2.94,0,0,0-1.42-3.06,2.88,2.88,0,0,0-1.46-.39,2.94,2.94,0,0,0-2.54,1.46,2.95,2.95,0,0,0,1.07,4,3,3,0,0,0,1.46.39,2.94,2.94,0,0,0,1.89-.7l2.18,1.26a9,9,0,0,0-.69,2.57H11.54a2.93,2.93,0,1,0,0,2h2.51a9.14,9.14,0,0,0,.69,2.56L12.56,25a3,3,0,0,0-1.89-.69,2.91,2.91,0,0,0-2.82,2.17,2.87,2.87,0,0,0,.29,2.22,2.92,2.92,0,0,0,2.54,1.47A2.93,2.93,0,0,0,13.51,28a3.08,3.08,0,0,0,.05-1.28l2.18-1.26a8.82,8.82,0,0,0,1.88,1.88l-1.27,2.19a2.16,2.16,0,0,0-.51-.06A3,3,0,0,0,13.3,30.9a2.93,2.93,0,1,0,5.37.71,2.85,2.85,0,0,0-.59-1.13l1.26-2.19A8.51,8.51,0,0,0,21.9,29V31.5a2.93,2.93,0,1,0,2,0V29a8.81,8.81,0,0,0,2.56-.69l1.26,2.19a2.85,2.85,0,0,0-.59,1.13A2.92,2.92,0,0,0,30,35.29a2.88,2.88,0,0,0,1.46-.39A2.93,2.93,0,0,0,30,29.43a2.31,2.31,0,0,0-.52.06L29,28.73h0l-.83-1.43a8.82,8.82,0,0,0,1.88-1.88l2.18,1.26A3.08,3.08,0,0,0,32.28,28a2.93,2.93,0,1,0,4.3-3.3,2.9,2.9,0,0,0-1.46-.39,3,3,0,0,0-1.89.69L31,23.7a8.51,8.51,0,0,0,.69-2.56Z"/>
		<path class="cls-3" d="M21,34.6a1.2,1.2,0,0,1-.76-.27,1.18,1.18,0,0,1-.42-1l.77-8L10.25,28a1.1,1.1,0,0,1-.31,0H9.81l-5.52-.6a1.2,1.2,0,0,1-1-.69l-.51-1.11a1.2,1.2,0,0,1-.1-.37L2,18.6a1.18,1.18,0,0,1,.82-1.25l.85-.27A1.09,1.09,0,0,1,4.05,17a1.24,1.24,0,0,1,.83.33L8.33,20.7l8.91-2.39-2.45-3.44a1.17,1.17,0,0,1-.15-1.1,1.23,1.23,0,0,1,.83-.74l3.7-.92a1.43,1.43,0,0,1,.29,0,1.19,1.19,0,0,1,.58.15l6.44,3.61L36.92,13a8.11,8.11,0,0,1,1.75-.18c2.6,0,4.5,1.05,4.95,2.73.8,3-1.61,3.86-2.89,4.26l-.16,0-8.52,2.29L25.64,33a1.18,1.18,0,0,1-.69.53l-3.67,1.06A1.24,1.24,0,0,1,21,34.6Z"/>
		<path class="cls-5" d="M9.94,26.88l11.94-3.2L21,33.42l3.67-1.06,6.65-11.19,9-2.41h0C42,18.21,43,17.68,42.47,15.9S39,13.8,37.18,14.2L8,22,4.05,18.21l-.85.27.71,6.68.51,1.12Z"/>
		<polyline class="cls-6" points="9.49 25.35 21.43 22.15 15.75 14.19 19.46 13.26 30.82 19.63 39.81 17.23"/>
</svg>